<svg width="636" height="34" viewBox="0 0 636 34" fill="none" xmlns="http://www.w3.org/2000/svg">
<path d="M2 32.0001C3.78586 24.8567 44.799 26.1018 51.7778 25.5556C74.9203 23.7445 98.1335 21.7867 121.111 18.4445C125.072 17.8684 131.166 16.8731 134.444 19.5556C140.444 24.464 134.816 22.4859 130.889 26.0001C127.418 29.1054 127.487 32.3673 132.444 32.0001C141.783 31.3084 153.301 19.429 162.444 16.0001C179.396 9.64314 193.513 2.08178 211.778 4.1112C218.598 4.869 218 11.685 218 16.889C218 25.3135 239.564 22.2091 244.444 21.6668C266.45 19.2217 288.01 10.6587 308.667 3.22231C320.169 -0.918469 339.084 11.316 350.667 12.7779C398.866 18.8612 446.094 13.4564 493.889 7.22231C503.073 6.02445 510.56 5.9882 519.667 7.00009C543.732 9.67403 568.469 11.1444 592.667 11.889C605.415 12.2812 621.909 14.8364 634 10.0001" stroke="#DBDBDB" stroke-width="3" stroke-linecap="round"/>
</svg>
