<svg width="442" height="60" viewBox="0 0 442 60" fill="none" xmlns="http://www.w3.org/2000/svg">
<path d="M2 22C29.4835 22 56.0698 16.5609 83.5556 16C145.2 14.7419 206.015 1.99997 267.556 1.99997C276.704 1.99997 300.023 -1.07528 282.111 8.99997C273.15 14.0406 265.016 19.7955 255.556 24C250.128 26.4121 234.628 33.4903 248.222 36.8889C262.469 40.4505 279.393 38 294 38C300.633 38 307.376 38.3486 314 38C320.918 37.6358 330.21 34.103 315.889 40C311.641 41.7493 294 43.561 294 50.4444C294 59.3378 306.335 58 312.111 58C336.947 58 359.567 48 384.889 48C397.533 48 411.317 49.3536 423.556 45.5555C428.984 43.871 434.95 44.5249 440 42" stroke="#DBDBDB" stroke-width="3" stroke-linecap="round"/>
</svg>
