<svg width="520" height="50" viewBox="0 0 520 50" fill="none" xmlns="http://www.w3.org/2000/svg">
<path d="M2 46.4829C15.866 33.6836 38.4091 28.4804 56 23.594C72.9308 18.891 91.2501 12.4829 109 12.4829C123.634 12.4829 98.363 35.6166 100.111 43.4829C101.322 48.931 108.714 49.2329 112.111 46.2607C126.204 33.929 139.711 22.3577 156 12.7051C164.044 7.9385 182.841 -0.276919 192.889 2.59402C197.929 4.03405 198 15.6598 198 19.2607C198 38.3392 204.318 34.8294 220.889 28.9274C227.3 26.6441 285.85 2.70121 289.556 9.3718C294.246 17.8152 296.493 26.5224 305.556 32.0385C322.349 42.2604 352.707 36.9957 370 32.0385C400.823 23.2025 429.695 15.7435 461.556 10.9274C476.347 8.69151 491.26 7.35607 506.111 5.59402C510.655 5.05488 515.063 5.41965 518 2.48291" stroke="#DBDBDB" stroke-width="3" stroke-linecap="round"/>
</svg>
