<svg width="284" height="60" viewBox="0 0 284 60" fill="none" xmlns="http://www.w3.org/2000/svg">
<path d="M2 15.9082C2 4.31909 60.5375 3.90816 71.8889 3.90816C79.2413 3.90816 86.4389 4.38595 93.5556 2.35261C102.847 -0.302176 82.9687 12.8862 82 13.4637C74.9763 17.6509 39.3585 31.9082 64 31.9082C75.2841 31.9082 84.8537 35.7434 96.2222 35.9082C113.419 36.1574 95.4113 42.7191 89.2222 48.9082C82.9662 55.1642 93.8334 57.9082 98 57.9082C109.966 57.9082 122.25 49.6996 133.667 46.7971C163.9 39.1107 194.632 34.4528 225.111 27.9082C242.099 24.2604 258.724 20.081 274.889 13.6859C277.522 12.6443 279.273 11.9082 282 11.9082" stroke="#DBDBDB" stroke-width="3" stroke-linecap="round"/>
</svg>
