<svg width="369" height="369" viewBox="0 0 369 369" fill="none" xmlns="http://www.w3.org/2000/svg">
<g clip-path="url(#clip0_1_163)">
<path opacity="0.5" d="M226.734 23.6722C208.904 17.9238 177.802 26.6301 163.182 62.8472C143.268 114.648 89.2965 128.771 89.2965 128.771C89.2965 128.771 30.8496 146.333 35.3416 185.061C39.8336 223.789 66.9175 230.845 83.027 238.553C92.9444 243.322 105.32 252.518 114.964 269.017C131.9 298.018 206.308 348.581 298.096 282.301C298.096 282.301 364.788 242.353 341.714 195.247C318.624 148.149 289.259 175.369 275.087 123.214C260.898 71.0672 268.489 37.1181 226.734 23.6722Z" fill="#5468E7"/>
</g>
<defs>
<clipPath id="clip0_1_163">
<rect width="280" height="280" fill="white" transform="translate(0 111.823) rotate(-23.5386)"/>
</clipPath>
</defs>
</svg>
