<svg width="15" height="15" viewBox="0 0 15 15" fill="none" xmlns="http://www.w3.org/2000/svg">
<g clip-path="url(#clip0_1_232)">
<path d="M14.3922 6.32234C14.3922 7.71852 14.3565 9.1147 14.4021 10.5089C14.4597 12.2452 13.0058 14.1892 10.678 14.3929C9.09692 14.5313 7.15241 13.5821 6.59229 11.4898C6.4751 11.0527 6.41949 10.59 6.41552 10.1371C6.39565 8.30784 6.41949 6.4766 6.39963 4.64733C6.38771 3.52801 5.65876 2.81806 4.53853 2.77257C4.33196 2.76466 4.12341 2.76862 3.91684 2.76862C3.29714 2.76862 2.67545 2.77455 2.05574 2.76466C1.82733 2.76071 1.59295 2.74291 1.37447 2.68556C0.87791 2.55306 0.621686 2.19512 0.609769 1.67501C0.599837 1.18259 0.879894 0.806852 1.37049 0.660511C1.43604 0.640735 1.50556 0.620959 1.57309 0.622937C2.76681 0.62887 3.97245 0.531968 5.15227 0.670399C7.13056 0.903754 8.56263 2.62228 8.57852 4.62162C8.59441 6.5201 8.57653 8.41859 8.58845 10.3171C8.59441 11.2802 9.12076 11.9644 9.99271 12.1958C11.0116 12.4647 12.0941 11.739 12.1954 10.6928C12.259 10.0343 12.3007 9.36981 12.3047 8.70929C12.3186 6.53592 12.3087 4.36255 12.3106 2.18919C12.3106 1.95979 12.3047 1.72841 12.3365 1.50494C12.406 1.00461 12.833 0.638758 13.3276 0.624915C13.848 0.607117 14.3008 0.988791 14.3723 1.52076C14.4002 1.72445 14.3942 1.9321 14.3942 2.13777C14.3962 3.53197 14.3942 4.92814 14.3922 6.32234C14.3942 6.32234 14.3942 6.32234 14.3922 6.32234Z" fill="#5468E7"/>
<path d="M0.0158929 1.64727C0.0158929 0.905678 0.466767 0.312402 1.20167 0.0909118C1.27913 0.0671807 1.41817 0.0256514 1.57906 0.027629C1.93459 0.0296066 2.30006 0.0216963 2.65559 0.013786C3.49577 -0.0040123 4.36375 -0.0218105 5.22378 0.0790464C7.45631 0.342066 9.15652 2.29197 9.17638 4.61365C9.18432 5.63804 9.18432 6.67826 9.18234 7.68485C9.18234 8.56092 9.18035 9.43699 9.18631 10.3131C9.19028 11.0032 9.52397 11.4561 10.1476 11.6202C10.4714 11.7053 10.823 11.64 11.113 11.4383C11.395 11.2445 11.5738 10.9498 11.6036 10.6334C11.6711 9.93534 11.7048 9.30449 11.7088 8.70331C11.7168 7.22605 11.7168 5.72308 11.7148 4.26955C11.7148 3.57542 11.7128 2.88129 11.7148 2.18715L11.7148 2.08432C11.7148 1.87272 11.7128 1.65321 11.7466 1.41985C11.8578 0.636726 12.5152 0.0513605 13.3117 0.0296071C14.142 0.00587611 14.851 0.612995 14.9623 1.4416C14.9901 1.65321 14.9901 1.85888 14.9901 2.04081L14.9901 2.13574C14.9921 3.18188 14.9901 4.23 14.9901 5.27615L14.9861 6.91557C14.9841 7.14892 14.9821 7.3803 14.9801 7.61365C14.9722 8.55894 14.9643 9.53587 14.996 10.4891C15.0715 12.4667 13.4468 14.7448 10.7276 14.9841C8.87249 15.1463 6.65784 14.0507 6.0143 11.644C5.88917 11.1753 5.82164 10.671 5.81568 10.145C5.80575 9.22737 5.80774 8.29394 5.80774 7.39216C5.80972 6.49434 5.80972 5.56487 5.79979 4.65518C5.79185 3.85822 5.33303 3.39942 4.50874 3.3658C4.36573 3.35986 4.22471 3.35986 4.0817 3.36184L3.91287 3.36184C3.72418 3.36184 3.53549 3.36184 3.3468 3.36184C2.91181 3.36382 2.47683 3.36382 2.04185 3.35591C1.83528 3.35195 1.52344 3.33811 1.21756 3.25505C0.468754 3.05334 0.0297974 2.48181 0.0119209 1.68485C0.0158939 1.67298 0.0158929 1.65914 0.0158929 1.64727ZM1.58899 1.21418C1.5731 1.21814 1.55721 1.22209 1.54132 1.22802C1.23544 1.31899 1.20763 1.51873 1.20564 1.66112C1.2116 1.96566 1.33475 2.05861 1.5294 2.11201C1.70816 2.15947 1.92069 2.16936 2.06568 2.17133C2.49272 2.17924 2.91976 2.17727 3.3468 2.17727C3.53748 2.17727 3.72815 2.17727 3.91685 2.17727L4.07773 2.17727C4.23861 2.17727 4.3995 2.17529 4.56038 2.1832C5.99841 2.24253 6.97564 3.2333 6.99153 4.6453C7.00146 5.5629 7.00146 6.49632 6.99947 7.3981C6.99947 8.29592 6.99749 9.22539 7.00742 10.1351C7.01139 10.5563 7.067 10.9736 7.16433 11.3414C7.63904 13.1173 9.26377 13.9241 10.6224 13.8055C12.6483 13.6275 13.852 11.9762 13.8043 10.5326C13.7725 9.55564 13.7805 8.56487 13.7884 7.60772C13.7924 7.18056 13.7944 6.7534 13.7944 6.32625L13.7963 5.2801C13.7963 4.23396 13.7963 3.18781 13.7963 2.14167L13.7963 2.04081C13.8003 1.88063 13.8003 1.73033 13.7824 1.59981C13.7527 1.37437 13.564 1.20825 13.3455 1.21418C13.1329 1.22011 12.9562 1.37437 12.9264 1.58201C12.9065 1.73033 12.9065 1.89843 12.9065 2.07641L12.9065 2.18518C12.9065 2.87931 12.9065 3.57147 12.9065 4.2656C12.9065 5.7211 12.9085 7.22605 12.9006 8.70726C12.8966 9.34404 12.8608 10.0105 12.7893 10.7442C12.7238 11.4086 12.3623 12.0158 11.7922 12.4093C11.2143 12.8088 10.5012 12.9373 9.83978 12.7633C8.68975 12.4587 8.00053 11.5431 7.99259 10.315C7.98663 9.43699 7.98862 8.55894 7.98862 7.67892C7.9906 6.67628 7.9906 5.63805 7.98266 4.61959C7.96875 2.89711 6.7214 1.44951 5.08276 1.25769C4.30416 1.16672 3.51563 1.18254 2.67943 1.20034C2.32389 1.20825 1.95445 1.21616 1.58899 1.21418Z" fill="#5468E7"/>
<path d="M0.607779 10.4316C0.607779 9.45668 0.577985 8.47975 0.61771 7.5048C0.647503 6.73355 1.31289 6.32023 2.01204 6.57534C2.36559 6.70388 2.58408 6.94515 2.63969 7.31496C2.66551 7.49294 2.67346 7.67685 2.67346 7.85681C2.67544 9.58127 2.67743 11.3057 2.67346 13.0322C2.67346 13.2359 2.66551 13.4435 2.61784 13.6393C2.51853 14.0486 2.07759 14.3829 1.66247 14.3987C1.23145 14.4145 0.752774 14.0645 0.64949 13.6274C0.603807 13.4316 0.599834 13.222 0.597847 13.0183C0.591889 12.1561 0.595862 11.2939 0.595862 10.4316C0.601821 10.4316 0.603807 10.4316 0.607779 10.4316Z" fill="#5468E7"/>
<path d="M-3.59527e-06 11.7923C-3.58533e-06 11.5648 -3.57539e-06 11.3374 -3.56545e-06 11.11L0.00992686 9.83841C0.00992687 9.7415 0.00794013 9.64658 0.00794013 9.54968C0.00198161 8.87334 -0.00397716 8.1713 0.0218438 7.47717C0.0436923 6.92542 0.299916 6.44684 0.724969 6.16405C1.15201 5.87928 1.69624 5.82588 2.21663 6.01375C2.78469 6.21942 3.1442 6.64856 3.2296 7.22206C3.26337 7.45541 3.26933 7.68086 3.26933 7.84895C3.27131 9.57539 3.2733 11.2998 3.26933 13.0263C3.26933 13.2636 3.2594 13.5187 3.19782 13.7718C3.03893 14.4264 2.37354 14.9564 1.6863 14.9821C0.96133 15.0078 0.238342 14.4581 0.0714992 13.756C0.0119125 13.5049 0.00595442 13.2616 0.00396817 13.0164C-4.3464e-06 12.613 -3.61325e-06 12.2036 -3.59527e-06 11.7923ZM1.19173 11.021L1.19173 11.112C1.19173 11.7468 1.18975 12.3796 1.19372 13.0144C1.19372 13.1963 1.19769 13.3585 1.22947 13.491C1.2692 13.6571 1.4996 13.8134 1.64062 13.8074C1.79753 13.8015 2.00211 13.6433 2.03787 13.4989C2.06965 13.3724 2.0756 13.2181 2.0756 13.0283C2.07958 11.3038 2.07759 9.57934 2.0756 7.85686C2.0756 7.66504 2.06766 7.52265 2.0478 7.40004C2.02992 7.27743 1.98424 7.19239 1.80349 7.12911C1.64261 7.06978 1.49364 7.07769 1.3844 7.15087C1.27714 7.22206 1.21557 7.35653 1.20762 7.52858C1.1818 8.19503 1.18776 8.88125 1.19372 9.54375C1.19571 9.84038 1.19968 10.137 1.19968 10.4317L1.19968 11.023L1.19173 11.023L1.19173 11.021Z" fill="#5468E7"/>
</g>
<defs>
<clipPath id="clip0_1_232">
<rect width="15" height="15" fill="white" transform="translate(15) rotate(90)"/>
</clipPath>
</defs>
</svg>
