<svg width="120" height="22" viewBox="0 0 120 22" fill="none" xmlns="http://www.w3.org/2000/svg">
<g clip-path="url(#clip0_1_821)">
<path d="M33.0024 21.3026L28.0362 21.1637V5.56725C28.0362 4.86121 28.1644 4.19858 28.4208 3.57356C28.6773 2.95144 29.0306 2.40455 29.4836 1.93868C29.9338 1.47281 30.4637 1.10243 31.0677 0.833326C31.6718 0.564222 32.3271 0.428223 33.0309 0.428223C33.6976 0.428223 34.313 0.543966 34.8771 0.778348C35.4413 1.01273 35.9541 1.33102 36.4129 1.73323C36.8716 2.13544 37.279 2.60999 37.6295 3.15688C37.9799 3.70088 38.2791 4.28249 38.5213 4.89593L43.1484 16.4674L48.2086 4.2767C48.6587 3.02088 49.3055 2.066 50.1517 1.41204C50.9951 0.758092 52.0294 0.428223 53.2574 0.428223C54.0323 0.428223 54.7332 0.58737 55.3629 0.902772C55.9897 1.21817 56.5254 1.64353 56.9727 2.17306C57.4201 2.70548 57.762 3.31892 58.0013 4.01339C58.2406 4.71074 58.3603 5.43414 58.3603 6.18358V21.1637H53.3941V5.90869L48.4963 16.806C48.1715 17.5294 47.8524 18.192 47.5362 18.791C47.2199 19.3899 46.8637 19.905 46.4677 20.3304C46.0717 20.7557 45.6158 21.0856 45.1001 21.32C44.5872 21.5544 43.9633 21.6701 43.2339 21.6701C42.5671 21.6701 41.9631 21.5312 41.4218 21.2505C40.8804 20.9699 40.3875 20.6053 39.9459 20.151C39.5042 19.6967 39.1082 19.1787 38.7606 18.5913C38.413 18.0039 38.0996 17.402 37.8204 16.777L33.0024 6.09967V21.3026Z" fill="#5468E7"/>
<path d="M66.982 21.1639H61.1212L69.079 5.53844C69.4836 4.7427 69.8768 4.02798 70.2557 3.39428C70.6347 2.76348 71.0449 2.22527 71.4866 1.77966C71.9282 1.33405 72.4297 0.995495 72.9881 0.755326C73.5465 0.518051 74.2104 0.399414 74.9768 0.399414C75.7262 0.399414 76.3673 0.520945 76.8972 0.764007C77.43 1.00707 77.9087 1.3543 78.3304 1.80859C78.7549 2.26289 79.1509 2.81557 79.5213 3.47241C79.8917 4.12636 80.2878 4.86712 80.7123 5.6918L88.6701 21.1667H83.0144L79.943 15.7384H69.7941L66.982 21.1639ZM72.4638 10.417H77.3075L74.8999 5.99273L72.4638 10.417Z" fill="#5468E7"/>
<path d="M91.4481 4.97409C91.4481 4.30567 91.5934 3.67197 91.8812 3.0701C92.169 2.47113 92.5536 1.9445 93.0323 1.4902C93.5109 1.03591 94.0551 0.674208 94.6706 0.405103C95.2832 0.135999 95.9214 0 96.5795 0C98.0583 0 99.4857 0.674208 100.856 2.01973L114.795 15.9553V0.480337H120.006V15.6543C120.006 16.4501 119.892 17.2024 119.661 17.9085C119.43 18.6145 119.097 19.2308 118.661 19.7575C118.222 20.2841 117.689 20.7037 117.057 21.0162C116.424 21.3287 115.709 21.482 114.906 21.482C114.518 21.482 114.156 21.4444 113.823 21.3663C113.49 21.2882 113.156 21.1666 112.829 21.0017C112.501 20.8368 112.153 20.6255 111.794 20.3709C111.432 20.1134 111.031 19.8067 110.589 19.4507L96.6365 5.63962V21.1695H91.4538V4.97409H91.4481Z" fill="#5468E7"/>
<path d="M9.10895 1.03006C11.1205 1.03006 13.132 1.08214 15.1407 1.01559C17.6423 0.931674 20.4431 3.04979 20.7366 6.44108C20.936 8.74438 19.5684 11.5772 16.5539 12.3932C15.9242 12.5639 15.2575 12.6449 14.6051 12.6507C11.9696 12.6797 9.33119 12.6449 6.69567 12.6739C5.08302 12.6912 4.06016 13.7532 3.99463 15.3852C3.98323 15.689 3.98893 15.9899 3.98893 16.2909C3.98893 17.1937 3.99748 18.0994 3.98323 19.0022C3.97753 19.3349 3.95189 19.6764 3.86926 19.9947C3.67837 20.7181 3.16266 21.0913 2.41332 21.1087C1.70387 21.1232 1.16252 20.7152 0.948827 20.0005C0.920335 19.905 0.891843 19.8037 0.894692 19.7053C0.90324 17.9663 0.763629 16.2099 0.963073 14.4911C1.29928 11.609 3.77524 9.52276 6.65579 9.49961C9.39102 9.47646 12.1263 9.5025 14.8615 9.48514C16.2491 9.47646 17.2349 8.70966 17.5682 7.43937C17.9557 5.95495 16.9101 4.37795 15.4028 4.23037C14.4541 4.13778 13.4967 4.07701 12.5451 4.07122C9.41382 4.05097 6.28254 4.06544 3.15126 4.06254C2.82076 4.06254 2.4874 4.07122 2.16544 4.02493C1.44459 3.92365 0.917486 3.30153 0.897541 2.58102C0.874748 1.82579 1.42464 1.16606 2.19108 1.06189C2.48455 1.02138 2.78372 1.03006 3.08003 1.03006C5.08872 1.02716 7.10026 1.02716 9.10895 1.03006Z" fill="#5468E7"/>
<path d="M2.37343 21.9768C1.30498 21.9768 0.450215 21.3199 0.131104 20.2493C0.0969135 20.1365 0.0370802 19.9339 0.0399294 19.6995C0.0427786 19.1816 0.0313818 18.6492 0.0199849 18.1312C-0.00565792 16.9072 -0.0313008 15.6427 0.114009 14.3898C0.492953 11.1374 3.30227 8.66046 6.64724 8.63153C8.12313 8.61995 9.62181 8.61995 11.0721 8.62284C12.3343 8.62284 13.5965 8.62574 14.8586 8.61706C15.853 8.61127 16.5055 8.12515 16.742 7.21656C16.8645 6.7449 16.7705 6.23274 16.4798 5.81027C16.2006 5.39938 15.7761 5.13896 15.3202 5.09555C14.3145 4.99717 13.4056 4.94798 12.5394 4.94219C10.411 4.93062 8.24564 4.93062 6.15148 4.93351C5.1514 4.93351 4.15133 4.9364 3.15126 4.93351H3.0031C2.69824 4.93351 2.38198 4.9364 2.04577 4.88721C0.914636 4.72517 0.0741199 3.76739 0.0427786 2.60417C0.00858812 1.39754 0.883294 0.364525 2.07711 0.19959C2.38198 0.15908 2.67829 0.15908 2.94042 0.15908H3.07718C4.58441 0.156186 6.09449 0.15908 7.60172 0.15908L9.96371 0.164867C10.2999 0.167761 10.6333 0.170654 10.9695 0.173548C12.3314 0.185122 13.7389 0.196697 15.1122 0.150399C17.9614 0.0404426 21.2437 2.4074 21.5885 6.36873C21.8221 9.07135 20.2436 12.2977 16.7762 13.2352C16.1009 13.4175 15.3744 13.5159 14.6165 13.5246C13.2944 13.5391 11.9496 13.5362 10.6504 13.5362C9.35683 13.5333 8.01771 13.5333 6.70707 13.5477C5.55884 13.5593 4.89783 14.2277 4.84939 15.4286C4.84084 15.6369 4.84084 15.8424 4.84369 16.0507V16.2967C4.84369 16.5716 4.84369 16.8464 4.84369 17.1213C4.84654 17.755 4.84654 18.3887 4.83514 19.0224C4.82944 19.3234 4.8095 19.7777 4.68983 20.2233C4.39921 21.3141 3.57579 21.9536 2.42756 21.9797C2.41047 21.9768 2.39052 21.9768 2.37343 21.9768ZM1.74945 19.6851C1.75515 19.7082 1.76085 19.7314 1.7694 19.7545C1.90046 20.2001 2.18823 20.2406 2.39337 20.2435C2.83215 20.2348 2.96606 20.0554 3.04299 19.7719C3.11137 19.5114 3.12562 19.2018 3.12847 18.9906C3.13987 18.3685 3.13702 17.7463 3.13702 17.1242C3.13702 16.8464 3.13702 16.5687 3.13702 16.2938V16.0594C3.13702 15.825 3.13417 15.5906 3.14556 15.3562C3.23104 13.2613 4.65849 11.8376 6.69282 11.8145C8.01486 11.8 9.35968 11.8 10.6589 11.8029C11.9525 11.8029 13.2916 11.8058 14.6022 11.7913C15.2091 11.7855 15.8103 11.7045 16.3402 11.5627C18.8988 10.8712 20.0613 8.50421 19.8903 6.52499C19.6339 3.57352 17.2548 1.82 15.1749 1.88945C13.7674 1.93575 12.34 1.92417 10.9609 1.9126C10.3455 1.90681 9.73008 1.90392 9.11465 1.90392L7.60742 1.90102C6.10019 1.90102 4.59296 1.90102 3.08573 1.90102H2.94042C2.70964 1.89524 2.4931 1.89524 2.30505 1.92128C1.98024 1.96468 1.74091 2.23957 1.74945 2.55787C1.758 2.86748 1.98024 3.12501 2.27941 3.16842C2.4931 3.19735 2.73528 3.19735 2.99171 3.19735H3.14841C4.14848 3.19735 5.14571 3.19735 6.14578 3.19735C8.24279 3.19735 10.411 3.19446 12.5451 3.20604C13.4625 3.21182 14.4227 3.26391 15.4798 3.36808C16.4371 3.46357 17.3118 3.9902 17.8788 4.82066C18.4543 5.6627 18.6395 6.7015 18.3888 7.66506C17.95 9.34046 16.6309 10.3445 14.8615 10.3561C13.5964 10.3648 12.3314 10.3619 11.0635 10.3619C9.61896 10.359 8.12313 10.359 6.65579 10.3706C4.17413 10.3879 2.08851 12.208 1.81214 14.5952C1.68107 15.7295 1.70387 16.8783 1.72951 18.0965C1.74091 18.6144 1.7523 19.1526 1.74945 19.6851Z" fill="#5468E7"/>
<path d="M15.0296 21.1116C13.6249 21.1116 12.2174 21.155 10.8128 21.0971C9.70159 21.0537 9.10611 20.0843 9.47366 19.0658C9.65885 18.5507 10.0065 18.2324 10.5393 18.1514C10.7957 18.1138 11.0607 18.1022 11.3199 18.1022C13.8044 18.0993 16.289 18.0964 18.7763 18.1022C19.0698 18.1022 19.3689 18.1138 19.651 18.1832C20.2408 18.3279 20.7223 18.9703 20.7451 19.5751C20.7679 20.203 20.2636 20.9003 19.6339 21.0508C19.3519 21.1173 19.0498 21.1231 18.7564 21.126C17.5141 21.1347 16.2719 21.1289 15.0296 21.1289C15.0296 21.1231 15.0296 21.1173 15.0296 21.1116Z" fill="#5468E7"/>
<path d="M16.9899 21.9998C16.6622 21.9998 16.3345 21.9998 16.0069 21.9998L14.1748 21.9854C14.0352 21.9854 13.8985 21.9883 13.7589 21.9883C12.7844 21.9969 11.773 22.0056 10.7729 21.968C9.97797 21.9362 9.28846 21.5629 8.88102 20.9437C8.47074 20.3216 8.39381 19.5287 8.66448 18.7706C8.9608 17.943 9.57908 17.4193 10.4053 17.2949C10.7416 17.2457 11.0664 17.237 11.3085 17.237C13.7959 17.2341 16.2804 17.2312 18.7678 17.237C19.1097 17.237 19.4772 17.2515 19.8419 17.3412C20.785 17.5726 21.5486 18.542 21.5856 19.5432C21.6227 20.5993 20.8306 21.6526 19.8191 21.8957C19.4573 21.9825 19.1068 21.9912 18.7535 21.9941C18.1723 21.9969 17.5825 21.9998 16.9899 21.9998ZM15.8787 20.2608H16.0097C16.9243 20.2608 17.8361 20.2637 18.7507 20.2579C19.0128 20.2579 19.2464 20.2521 19.4373 20.2058C19.6767 20.1479 19.9018 19.8123 19.8932 19.6068C19.8847 19.3782 19.6567 19.0802 19.4487 19.0281C19.2664 18.9818 19.0441 18.9731 18.7706 18.9731C16.2861 18.9674 13.8016 18.9702 11.3199 18.9731C11.0436 18.9731 10.8384 18.9847 10.6618 19.0137C10.4851 19.0397 10.3626 19.1062 10.2714 19.3696C10.186 19.6039 10.1974 19.821 10.3028 19.9801C10.4053 20.1364 10.5991 20.2261 10.847 20.2376C11.8072 20.2753 12.7958 20.2666 13.7503 20.2579C14.1777 20.255 14.6051 20.2492 15.0296 20.2492H15.8815V20.2608H15.8787Z" fill="#5468E7"/>
</g>
<defs>
<clipPath id="clip0_1_821">
<rect width="120" height="22" fill="white"/>
</clipPath>
</defs>
</svg>
